<svg xmlns="http://www.w3.org/2000/svg" viewBox="0 0 109.33 109.33"><defs><style>.cls-1{fill:#212121;}.cls-2{fill:#eec643;}.cls-3{fill:#eef0f2;}.cls-4{fill:#21201d;}</style></defs><title>cat</title><g id="圖層_2" data-name="圖層 2"><g id="圖層_5" data-name="圖層 5"><path class="cls-1" d="M54.66,0A54.66,54.66,0,0,0,25.53,100.91c.7-4.82,2.85-19.61,3-22,.19-2.87,2.66-16,8-23.89L32.91,39.37s0-3.77,3.61-2.34S50,42.61,50,42.61s4.56-4.49,16-4.49a44.31,44.31,0,0,1,19.57,4.49l13.11-5s3.23-1.44,3.42,1.8S98.66,55,98.66,55s-.76.18,1.14,2.34,3.42,6.83,4,8.62c.3.93,1,4.61,1.84,8.46A54.66,54.66,0,0,0,54.66,0Z"/><path class="cls-2" d="M99.8,57.34C97.9,55.18,98.66,55,98.66,55s3.61-12.4,3.42-15.63-3.42-1.8-3.42-1.8l-13.11,5A44.31,44.31,0,0,0,66,38.12c-11.4,0-16,4.49-16,4.49S40.13,38.48,36.52,37s-3.61,2.34-3.61,2.34L36.52,55c-5.32,7.91-7.79,21-8,23.89-.16,2.4-2.3,17.18-3,22q1.26.8,2.57,1.53a54.66,54.66,0,0,0,77.53-28c-.79-3.85-1.54-7.53-1.84-8.46C103.22,64.17,101.7,59.5,99.8,57.34ZM74.73,59.76a4.91,4.91,0,1,1-4.91,4.91A4.91,4.91,0,0,1,74.73,59.76Zm-19,10.54a1.34,1.34,0,0,1,.95-.83,9.64,9.64,0,0,1,2.91-.1c1.32,0,2.9-.34,4.16.11a2.22,2.22,0,0,1,1.23,1c1,1.76-.78,4.05-1.68,5.47-.47.74-1,1.83-1.85,2.18v1.43s2.1,2.25,2.76,3,.62,1,.62,1a1.13,1.13,0,0,1-1.2.51c-.89-.12-2.92-3.07-3.15-3.07l-.06,0-.06,0c-.23,0-2.25,3-3.15,3.07a1.13,1.13,0,0,1-1.2-.51s0-.27.62-1,2.76-3,2.76-3V78.27c-1.74-.62-2.63-3.73-3.36-5.13a4.42,4.42,0,0,1-.29-.64A3.71,3.71,0,0,1,55.69,70.31Zm-9-10.54a4.91,4.91,0,1,1-4.91,4.91A4.91,4.91,0,0,1,46.73,59.76Z"/><path class="cls-3" d="M46.73,69.57a4.91,4.91,0,1,0-4.91-4.91A4.91,4.91,0,0,0,46.73,69.57Zm0-8.16a3.25,3.25,0,1,1-3.25,3.25A3.25,3.25,0,0,1,46.73,61.42Z"/><circle class="cls-4" cx="46.73" cy="64.67" r="3.25"/><path class="cls-3" d="M74.73,69.57a4.91,4.91,0,1,0-4.91-4.91A4.91,4.91,0,0,0,74.73,69.57Zm0-8.16a3.25,3.25,0,1,1-3.25,3.25A3.25,3.25,0,0,1,74.73,61.42Z"/><circle class="cls-1" cx="74.73" cy="64.67" r="3.25"/><path class="cls-1" d="M56,73.15c.73,1.4,1.62,4.51,3.36,5.13v1.28s-2.1,2.25-2.76,3-.62,1-.62,1a1.13,1.13,0,0,0,1.2.51C58,83.94,60.07,81,60.3,81l.06,0,.06,0c.23,0,2.25,3,3.15,3.07a1.13,1.13,0,0,0,1.2-.51s0-.27-.62-1-2.76-3-2.76-3V78.13c.85-.35,1.38-1.44,1.85-2.18.9-1.41,2.63-3.7,1.68-5.47a2.22,2.22,0,0,0-1.23-1c-1.26-.45-2.85-.1-4.16-.11a9.64,9.64,0,0,0-2.91.1,1.34,1.34,0,0,0-.95.83,3.71,3.71,0,0,0,0,2.2A4.42,4.42,0,0,0,56,73.15Z"/></g></g></svg>